<svg xmlns="http://www.w3.org/2000/svg" width="512" height="512" viewBox="0 0 512 512" version="1.1">
	<path d="M 156.087 67.711 C 152.233 72.386, 149.675 77.710, 150.388 79.570 C 151.122 81.482, 155.467 81.391, 157.435 79.422 C 159.463 77.395, 161.323 73.932, 160.293 74.104 C 159.857 74.177, 158.701 74.184, 157.724 74.118 C 156.060 74.007, 156.050 73.804, 157.557 70.890 C 158.441 69.179, 158.678 68.081, 158.083 68.449 C 156.444 69.462, 156.786 67.893, 158.655 65.829 C 159.565 64.823, 160.048 64, 159.728 64 C 159.408 64, 157.769 65.670, 156.087 67.711 M 185.233 70.184 C 182.178 71.009, 177.398 75.145, 170.624 82.827 C 165.235 88.937, 157.057 91.493, 150.669 89.064 C 148.482 88.233, 148.150 88.428, 147.683 90.814 C 146.369 97.538, 145.904 98.433, 143.679 98.521 C 136.972 98.788, 126.122 100.388, 126.530 101.049 C 126.816 101.512, 133.604 106.256, 141.613 111.592 C 149.622 116.928, 156.409 121.903, 156.695 122.647 C 157.466 124.656, 164.734 124.328, 171.572 121.975 L 177.457 119.951 179.978 121.970 C 191.066 130.849, 196.941 132.723, 204.192 129.693 C 209.625 127.423, 217 114.687, 217 107.575 C 217 105.340, 209.704 97.629, 204.434 94.295 L 200.245 91.645 203.667 89.322 C 205.549 88.045, 207.469 87, 207.933 87 C 208.398 87, 208.715 86.213, 208.639 85.250 C 208.415 82.434, 213.446 82.371, 215.403 85.165 C 217.592 88.291, 217.409 86.722, 215.043 82.083 C 213.966 79.973, 212.391 77.980, 211.543 77.655 C 210.694 77.329, 210 76.204, 210 75.154 C 210 74.104, 209.396 72.744, 208.658 72.131 C 207.623 71.272, 206.716 71.689, 204.697 73.956 C 203.017 75.841, 200.720 77.108, 198.289 77.489 C 196.205 77.816, 193.302 78.271, 191.837 78.499 C 187.963 79.104, 186.290 76.719, 187.794 72.736 C 188.438 71.029, 188.861 69.557, 188.733 69.467 C 188.605 69.376, 187.030 69.698, 185.233 70.184 M 148.079 81.583 C 148.127 82.748, 148.364 82.985, 148.683 82.188 C 148.972 81.466, 148.936 80.603, 148.604 80.271 C 148.272 79.939, 148.036 80.529, 148.079 81.583 M 176.927 91.126 C 169.449 95.959, 164.968 96.849, 159.537 94.580 C 156.441 93.286, 155.481 93.214, 154.838 94.227 C 152.903 97.276, 153.978 97.855, 161.250 97.677 C 167.446 97.526, 169.294 97.909, 173.963 100.316 C 179.568 103.205, 183.629 103.745, 190.723 102.547 C 196.200 101.622, 202.259 103.418, 206.724 107.292 L 210.422 110.500 207.766 107 C 206.305 105.075, 203.496 101.987, 201.523 100.139 C 199.550 98.290, 197.227 95.365, 196.360 93.639 C 192.390 85.732, 186.459 84.965, 176.927 91.126 M 217.158 98 C 217.158 99.375, 217.385 99.938, 217.662 99.250 C 217.940 98.563, 217.940 97.438, 217.662 96.750 C 217.385 96.063, 217.158 96.625, 217.158 98 M 87.500 103.386 L 77.500 104.500 83.717 109 C 87.136 111.475, 94.684 116.589, 100.490 120.363 L 111.047 127.227 122.263 126.524 C 128.432 126.138, 133.855 125.590, 134.313 125.306 C 135.484 124.583, 101.164 101.970, 99.148 102.136 C 98.242 102.212, 93 102.774, 87.500 103.386 M 158.459 107.067 C 157.383 108.808, 158.608 109.177, 159.980 107.524 C 160.769 106.574, 160.845 106, 160.181 106 C 159.597 106, 158.821 106.480, 158.459 107.067 M 34.250 107.737 C 31.362 107.939, 29 108.435, 29 108.838 C 29 109.508, 42.049 118.405, 56.202 127.383 C 62.374 131.298, 65.077 131.608, 80 130.116 L 86.500 129.466 74.500 121.610 C 67.900 117.289, 60.246 112.234, 57.491 110.377 C 52.178 106.795, 50.480 106.602, 34.250 107.737 M 169.659 108.553 C 170.774 111.459, 168.968 115.110, 165.715 116.524 L 162.500 117.922 166.316 117.961 C 173.089 118.030, 175.670 114.989, 173.028 110.052 C 171.808 107.773, 168.855 106.459, 169.659 108.553 M 197.324 110.859 C 198.327 111.255, 199.078 111.786, 198.992 112.039 C 198.907 112.293, 199.136 113.696, 199.503 115.157 C 200.327 118.441, 198.413 122.372, 196.371 121.589 C 195.542 121.271, 195.164 121.456, 195.507 122.011 C 196.454 123.543, 193.699 123.178, 191.223 121.443 C 188.244 119.357, 188.244 114.643, 191.223 112.557 L 193.445 111 190.795 111 C 188.158 111, 184 114.953, 184 117.461 C 184 119.907, 188.801 123.089, 193.649 123.855 C 199.765 124.822, 203.814 123.588, 204.583 120.524 C 205.643 116.303, 200.851 109.855, 196.816 110.070 C 196.092 110.109, 196.321 110.464, 197.324 110.859 M 4.337 113.564 C 4.007 114.424, 4.032 118.137, 4.392 121.814 C 4.893 126.920, 5.557 128.927, 7.203 130.305 C 9.727 132.419, 10.348 131.717, 11.456 125.500 C 11.848 123.300, 12.807 120.789, 13.586 119.920 C 14.836 118.526, 14.484 117.969, 10.587 115.170 C 5.523 111.533, 5.153 111.438, 4.337 113.564 M 192 114 C 192 114.550, 192.450 115, 193 115 C 193.550 115, 194 114.550, 194 114 C 194 113.450, 193.550 113, 193 113 C 192.450 113, 192 113.450, 192 114 M 159 114.902 C 159 115.940, 160.902 117.443, 161.466 116.850 C 161.649 116.658, 161.169 115.920, 160.399 115.211 C 159.630 114.501, 159 114.362, 159 114.902 M 441.561 117.650 C 419.681 122.340, 401.101 137.123, 392.073 157.026 C 389.007 163.786, 389.195 164.180, 395.154 163.499 C 400.279 162.913, 410 165.335, 410 167.198 C 410 167.639, 410.900 168, 412 168 C 413.100 168, 414 168.450, 414 169 C 414 169.550, 414.675 170, 415.500 170 C 416.325 170, 417 170.482, 417 171.071 C 417 171.661, 417.563 172.770, 418.250 173.537 C 421.361 177.005, 422 178.015, 422 179.458 C 422 180.306, 422.363 181, 422.807 181 C 423.251 181, 424.139 182.238, 424.781 183.750 C 425.890 186.363, 425.921 186.309, 425.409 182.645 C 424.794 178.249, 424.443 178.213, 433.298 183.451 C 438.231 186.369, 440.237 188.200, 440.970 190.451 C 442.290 194.509, 448.094 220.242, 447.761 220.564 C 447.187 221.119, 435.560 223.894, 435.223 223.556 C 434.293 222.627, 431 207.322, 431 203.932 C 431 201.834, 430.550 199.840, 430 199.500 C 429.351 199.099, 429 203.823, 429 212.941 C 429 221.647, 428.619 227, 428 227 C 427.450 227, 427 227.694, 427 228.542 C 427 230.245, 426.443 230.989, 420.237 237.577 C 417.893 240.066, 415.531 241.828, 414.987 241.492 C 414.444 241.157, 414 241.584, 414 242.441 C 414 243.298, 413.271 244, 412.380 244 C 409.938 244, 401.962 252.739, 402.685 254.623 C 403.059 255.597, 402.287 257.049, 400.643 258.461 C 399.190 259.711, 398 261.750, 398 262.994 C 398 265.058, 398.397 264.889, 402.560 261.052 C 408.150 255.899, 414.204 253.041, 419.500 253.054 C 424.981 253.067, 429.003 256.607, 431.579 263.684 L 432.968 267.500 432.675 264 C 432.514 262.075, 431.540 259.216, 430.509 257.648 C 428.427 254.477, 422.547 250.426, 418.583 249.431 C 416.706 248.960, 416 248.129, 416 246.392 C 416 243.473, 417.983 243.217, 418.721 246.041 C 419.014 247.163, 419.760 247.904, 420.377 247.687 C 420.995 247.469, 423.796 248.297, 426.601 249.525 C 435.467 253.406, 444.909 255.350, 455.272 255.427 C 461.619 255.475, 464.369 255.802, 463.116 256.361 C 461.913 256.898, 460.155 260.097, 458.444 264.861 C 456.935 269.063, 455.322 272.991, 454.859 273.592 C 454.041 274.653, 454.670 276, 455.983 276 C 456.340 276, 458.178 273.013, 460.066 269.362 C 461.955 265.711, 464.479 262.082, 465.675 261.297 C 468.958 259.141, 475.181 259.045, 489.227 260.934 C 501.967 262.648, 504 262.423, 504 259.300 C 504 257.693, 502.553 257.637, 500.129 259.152 C 497.669 260.688, 481.381 258.655, 479.018 256.516 C 478.096 255.682, 476.275 255, 474.971 255 C 471.423 255, 473.576 253.491, 481.197 250.638 C 492.792 246.295, 506.156 236.338, 511.079 228.373 C 513.108 225.089, 513.131 224.353, 512.419 184.440 L 511.695 143.848 508.656 140.174 C 493.376 121.706, 465.811 112.453, 441.561 117.650 M 13.590 122.627 C 12.889 124.452, 14.585 127, 16.500 127 C 18.415 127, 20.111 124.452, 19.410 122.627 C 18.601 120.518, 14.399 120.518, 13.590 122.627 M 449.500 123.027 C 430.218 124.687, 410.778 137.459, 402.171 154.122 L 398.877 160.500 404.438 160.800 C 409.183 161.056, 410 161.386, 410 163.050 C 410 164.488, 410.689 165, 412.622 165 C 414.765 165, 415.031 164.742, 414.076 163.591 C 413.089 162.403, 414.018 162.172, 420.009 162.116 C 423.915 162.079, 427.579 161.760, 428.151 161.407 C 428.723 161.053, 430.272 161.343, 431.594 162.050 C 434.559 163.637, 434.971 163.270, 434.277 159.657 C 433.753 156.927, 433.559 156.839, 429.432 157.458 C 425.671 158.022, 424.500 157.689, 420.084 154.801 C 417.308 152.986, 415.028 151.022, 415.018 150.437 C 414.975 147.889, 426.187 139.745, 434.500 136.286 C 451.117 129.372, 471.240 131.374, 486.167 141.427 L 491.214 144.825 494.036 142.310 C 495.589 140.927, 496.643 139.279, 496.378 138.648 C 495.538 136.638, 487.005 130.876, 480.647 128.024 C 470.544 123.492, 461.305 122.010, 449.500 123.027 M 23.189 123.862 C 24.822 127.690, 35.575 143, 36.630 143 C 38.523 143, 38.349 141.707, 35.901 137.557 L 33.802 134 35.842 134 C 39.887 134, 38.599 132.419, 30.807 127.817 C 26.446 125.241, 23.018 123.461, 23.189 123.862 M 146.413 125.141 C 145.216 127.078, 150.524 140.969, 153.059 142.537 C 153.658 142.907, 153.214 141.380, 152.074 139.144 C 150.933 136.909, 150 134.132, 150 132.974 C 150 130.587, 151.757 126.862, 153.400 125.765 C 154.120 125.285, 153.981 124.997, 153 124.932 C 152.175 124.878, 150.468 124.720, 149.208 124.581 C 147.947 124.442, 146.689 124.694, 146.413 125.141 M 170.548 127.923 C 169.057 130.335, 176.036 133.758, 179.928 132.523 C 182.960 131.561, 182.661 128.796, 179.608 129.562 C 178.244 129.904, 175.903 129.484, 174.164 128.585 C 172.457 127.702, 170.864 127.411, 170.548 127.923 M 203.661 137.644 C 201.201 141.823, 198.195 145.305, 195.294 147.333 C 188.107 152.360, 187.430 152.934, 188.660 152.968 C 190.779 153.026, 199.964 145.014, 202.695 140.725 C 204.175 138.401, 206.013 135.971, 206.780 135.326 C 207.548 134.680, 208.024 133.469, 207.838 132.636 C 207.645 131.772, 205.849 133.925, 203.661 137.644 M 164 134.991 C 164 135.944, 166.816 139, 167.694 139 C 167.997 139, 167.627 138.255, 166.872 137.344 C 165.612 135.822, 166.029 135.736, 172 136.282 C 176.353 136.680, 177.344 136.607, 175 136.058 C 168.600 134.562, 164 134.115, 164 134.991 M 6.797 135.778 C 4.823 136.184, 4.677 136.601, 2.410 148.303 C 1.332 153.871, 1.055 157.455, 1.657 158.057 C 2.258 158.658, 4.132 158.272, 6.756 157.004 C 11.833 154.551, 12.135 154.557, 24.350 157.343 C 34.848 159.737, 34.992 159.975, 28.070 163.494 C 24.808 165.152, 24.234 165.152, 16.288 163.484 C 11.694 162.520, 7.678 161.988, 7.365 162.302 C 7.051 162.616, 5.490 168.840, 3.897 176.133 C 1.264 188.183, 1 191.138, 1 208.512 L 1 227.630 4.295 229.201 C 8.519 231.215, 22.606 234.365, 24.368 233.689 C 25.382 233.300, 29 222.363, 29 219.685 C 29 219.463, 23.038 217.988, 15.750 216.406 C 8.462 214.825, 3.223 213.391, 4.107 213.220 C 4.991 213.048, 10.789 214.054, 16.991 215.454 C 23.194 216.854, 28.604 218, 29.013 218 C 29.674 218, 33 206.477, 33 204.185 C 33 203.688, 27.150 202.013, 20 200.462 C 12.850 198.911, 7 197.287, 7 196.853 C 7 196.418, 7.563 196.246, 8.250 196.470 C 8.938 196.694, 14.856 198.049, 21.401 199.481 L 33.303 202.084 35.956 199.542 C 39.766 195.892, 42.380 196.340, 48.011 201.607 C 50.719 204.141, 54.638 206.821, 56.718 207.563 C 58.798 208.305, 59.712 208.932, 58.750 208.956 C 57.788 208.980, 57 209.347, 57 209.771 C 57 210.195, 60.971 214.494, 65.823 219.324 C 72.430 225.901, 75.759 228.453, 79.073 229.486 C 81.508 230.245, 82.938 230.896, 82.250 230.933 C 78.599 231.128, 81.961 235.755, 94.052 247.174 C 101.230 253.953, 107.530 259.650, 108.052 259.833 C 108.573 260.017, 109 259.454, 109 258.583 C 109 257.712, 109.450 257, 110 257 C 110.550 257, 111 258.291, 111 259.869 C 111 262.714, 118.117 273, 120.085 273 C 120.588 273, 121 269.400, 121 265 C 121 260.333, 121.417 257, 122 257 C 122.550 257, 123 255.760, 123 254.244 C 123 252.335, 124.040 250.622, 126.386 248.666 C 128.411 246.977, 129.611 245.171, 129.373 244.171 C 128.541 240.685, 130.435 239.808, 138.613 239.892 C 142.971 239.937, 146.642 240.426, 146.829 240.987 C 147.015 241.544, 148.287 242, 149.657 242 C 152.141 242, 152.146 242.019, 151.749 250.250 C 151.289 259.780, 148.910 274, 147.775 274 C 147.349 274, 147 275.800, 147 278 C 147 280.200, 146.550 282, 146 282 C 145.450 282, 145 283.591, 145 285.535 C 145 287.480, 144.307 290.127, 143.461 291.419 C 142.063 293.552, 142.084 294.107, 143.678 297.452 C 145.264 300.777, 145.289 301.396, 143.931 303.817 C 142.978 305.519, 140.431 307.311, 136.964 308.719 C 133.959 309.940, 132.095 310.952, 132.821 310.969 C 135.603 311.034, 137 313.862, 137 319.429 C 137 322.493, 136.550 325, 136 325 C 135.450 325, 135 327.438, 135 330.417 C 135 333.396, 134.525 335.992, 133.944 336.185 C 133.363 336.379, 132.746 338.663, 132.572 341.262 C 132.399 343.860, 131.765 346.578, 131.165 347.302 C 130.346 348.289, 130.566 349.040, 132.048 350.309 C 133.134 351.239, 134.433 352, 134.935 352 C 135.828 352, 142 357.745, 142 358.577 C 142 358.810, 141.100 359, 140 359 C 138.900 359, 138 359.450, 138 360 C 138 360.550, 138.900 361, 140 361 C 141.100 361, 142 361.450, 142 362 C 142 362.550, 144.055 363, 146.566 363 C 149.077 363, 151.939 363.432, 152.926 363.961 C 155.020 365.081, 167.616 365.718, 168.581 364.752 C 169.368 363.965, 166.594 361, 165.071 361 C 164.482 361, 164 360.159, 164 359.131 C 164 355.182, 180.190 354.746, 187.581 358.496 C 190.286 359.869, 193.063 360.994, 193.750 360.996 C 194.511 360.998, 195 362.369, 195 364.500 C 195 366.425, 194.550 368, 194 368 C 193.450 368, 193 368.450, 193 369 C 193 369.550, 193.675 370, 194.500 370 C 195.325 370, 196 370.450, 196 371 C 196 371.550, 197.323 372, 198.941 372 C 202.379 372, 203.917 373.711, 201.360 374.692 C 198.630 375.740, 209.304 377.833, 214.430 377.255 C 217.031 376.962, 219.013 377.211, 219.429 377.885 C 219.820 378.518, 222.900 379, 226.559 379 C 230.186 379, 233 379.437, 233 380 C 233 380.593, 236.667 381, 242 381 C 247.333 381, 251 380.593, 251 380 C 251 379.450, 250.325 379, 249.500 379 C 247.077 379, 247.781 376.057, 250.500 374.818 C 251.875 374.192, 253 373.301, 253 372.839 C 253 372.378, 254.575 372, 256.500 372 L 260 372 260 366.500 C 260 363.475, 259.550 361, 259 361 C 258.450 361, 258 360.100, 258 359 C 258 356.839, 259.585 356.254, 260.226 358.177 C 260.794 359.882, 263 358.207, 263 356.070 C 263 354.553, 261.823 354.144, 255.750 353.553 C 239.797 352.002, 224.497 347.520, 211.347 340.547 L 203.194 336.223 202.536 340.612 C 202.174 343.025, 201.455 345, 200.939 345 C 200.422 345, 200 347.250, 200 350 C 200 352.750, 199.602 355, 199.117 355 C 198.631 355, 197.998 355.900, 197.710 357 C 197.088 359.381, 195.695 359.552, 193.643 357.500 C 192.818 356.675, 191.661 356, 191.071 356 C 190.482 356, 190 355.550, 190 355 C 190 354.450, 188.875 354, 187.500 354 C 186.125 354, 185 353.597, 185 353.105 C 185 352.613, 183.200 351.938, 181 351.605 C 178.800 351.272, 175.161 350.724, 172.913 350.387 C 170.432 350.014, 168.389 350.211, 167.713 350.887 C 167.101 351.499, 165.615 352, 164.411 352 C 162.710 352, 162.079 351.236, 161.580 348.573 C 161.226 346.688, 160.408 344.969, 159.761 344.754 C 159.009 344.503, 159.390 343.497, 160.817 341.966 C 162.045 340.648, 162.813 338.955, 162.525 338.203 C 162.236 337.452, 162 335.748, 162 334.418 C 162 332.870, 161.425 332, 160.403 332 C 159.099 332, 158.893 331.130, 159.278 327.250 C 159.537 324.637, 160.537 319.800, 161.501 316.500 C 162.465 313.200, 163.463 307.351, 163.719 303.502 C 163.974 299.654, 164.531 296.279, 164.955 296.002 C 165.380 295.726, 165.370 294.600, 164.934 293.500 C 164.224 291.710, 164.133 291.691, 164.070 293.321 C 164.032 294.323, 163.325 295.818, 162.500 296.643 C 161.675 297.468, 160.993 299.123, 160.985 300.321 C 160.972 302.095, 160.789 302.221, 160 301 C 159.467 300.175, 159.024 297.389, 159.015 294.809 C 159.007 292.229, 158.550 289.840, 158 289.500 C 156.075 288.310, 156.889 285, 159.107 285 C 160.705 285, 161.050 284.577, 160.537 283.250 C 159.115 279.579, 155.003 261.375, 155.001 258.750 C 155.001 257.238, 155.477 256, 156.059 256 C 156.641 256, 156.851 256.432, 156.525 256.960 C 156.156 257.557, 157.010 257.544, 158.783 256.926 C 160.698 256.258, 162.426 254.383, 164.044 251.216 C 167.477 244.497, 167.522 244.338, 165.508 246 C 163.759 247.443, 163.755 247.376, 165.387 244.220 C 166.778 241.528, 166.849 240.706, 165.782 239.639 C 164.366 238.223, 161.635 238.600, 162.553 240.085 C 162.864 240.588, 162.632 241, 162.038 241 C 161.443 241, 160.451 242.111, 159.832 243.469 C 159.214 244.826, 158.254 245.657, 157.699 245.314 C 157.114 244.952, 157.001 245.193, 157.432 245.889 C 158.199 247.132, 156.417 250, 154.878 250 C 154.395 250, 154 246.625, 154 242.500 C 154 236.500, 153.700 235, 152.500 235 C 151.675 235, 150.970 234.438, 150.932 233.750 C 150.895 233.063, 150.376 233.512, 149.780 234.750 C 148.709 236.971, 145 237.940, 145 236 C 145 235.450, 144.100 235, 143 235 C 141.900 235, 141 234.550, 141 234 C 141 233.450, 139.036 233, 136.637 233 C 132.708 233, 132.297 232.776, 132.509 230.750 C 132.639 229.513, 132.802 227.938, 132.872 227.250 C 132.943 226.563, 134.098 226, 135.441 226 C 136.784 226, 138.160 225.550, 138.500 225 C 138.840 224.450, 140.190 224, 141.500 224 C 146.807 224, 145.264 220.579, 139.405 219.355 L 135.310 218.500 138.453 204.588 L 141.596 190.676 145.782 188.649 C 149.437 186.878, 150.160 185.960, 151.484 181.407 C 152.318 178.539, 153 175.726, 153 175.155 C 153 173.260, 154.783 172.975, 159.848 174.061 C 164.392 175.035, 165.058 174.942, 166.932 173.068 C 168.069 171.931, 169 170.325, 169 169.500 C 169 168.675, 169.675 168, 170.500 168 C 171.325 168, 172 167.380, 172 166.622 C 172 165.753, 169.504 164.620, 165.250 163.558 C 158.669 161.916, 153.984 159.693, 154.015 158.227 C 154.024 157.827, 154.413 156.897, 154.880 156.160 C 155.570 155.072, 156.462 155.195, 159.639 156.816 C 165.591 159.852, 175.182 161.481, 179.090 160.118 C 180.855 159.503, 184.637 159, 187.494 159 C 191.338 159, 193.140 158.503, 194.418 157.091 C 196.059 155.278, 196.053 155.151, 194.298 154.595 C 193.282 154.272, 189.987 154.305, 186.975 154.667 C 178.905 155.638, 169.253 155.448, 167.785 154.289 C 167.078 153.732, 165.313 152.993, 163.861 152.647 C 162.410 152.301, 159.922 150.551, 158.331 148.759 C 156.009 146.142, 154.559 145.442, 150.970 145.207 C 148.511 145.046, 145.255 144.426, 143.733 143.829 C 141.109 142.799, 139.460 142.897, 127.444 144.794 C 121.678 145.704, 115.384 149.766, 111.930 154.807 C 109.869 157.815, 109.290 158.089, 106.220 157.513 C 104.041 157.105, 103.027 157.235, 103.423 157.875 C 104.424 159.496, 74.142 174.963, 70 174.946 C 68.075 174.938, 62.276 173.934, 57.113 172.716 L 47.727 170.500 53.113 167.678 C 56.076 166.127, 63.835 162.162, 70.356 158.868 C 76.877 155.574, 82.044 152.710, 81.838 152.505 C 81.633 152.300, 76.437 150.997, 70.292 149.610 L 59.118 147.087 51.921 151.044 C 44.002 155.396, 43.398 155.573, 42.662 153.750 C 42.385 153.063, 42.122 153.524, 42.079 154.775 C 41.936 158.888, 38.599 159.039, 23.255 155.625 C 15.452 153.888, 8.545 151.945, 7.907 151.307 C 7.026 150.426, 7.042 148.576, 7.975 143.630 C 9.362 136.280, 9.213 135.282, 6.797 135.778 M 181.370 138.147 C 182.850 139.007, 182.960 139.407, 181.899 140.062 C 181.161 140.518, 180.868 141.202, 181.248 141.581 C 181.627 141.960, 183.172 141.462, 184.681 140.473 C 187.253 138.788, 187.302 138.627, 185.463 137.908 C 184.383 137.486, 182.600 137.123, 181.500 137.101 C 179.581 137.062, 179.576 137.105, 181.370 138.147 M 9.011 146.487 C 7.532 148.269, 8.317 150.801, 10.622 151.685 C 12.990 152.594, 15.238 149.313, 13.926 146.862 C 12.725 144.618, 10.691 144.463, 9.011 146.487 M 466 147.333 C 453.841 150.120, 446.016 157.652, 446.005 166.579 L 446 170.659 457.750 178.079 C 469.167 185.290, 470.704 185.840, 476.748 184.882 C 482.945 183.900, 488.061 187.743, 488.911 194.019 C 489.442 197.934, 489.985 198.649, 494.403 201.243 C 498.830 203.842, 499.457 203.971, 500.855 202.573 C 501.824 201.604, 502.536 198.682, 502.756 194.762 C 503.037 189.767, 502.695 187.841, 501.063 185.241 C 498.557 181.246, 493.754 178.181, 488.702 177.352 L 484.905 176.729 488.360 173.564 C 496.168 166.412, 494.912 154.952, 485.732 149.592 C 480.471 146.521, 473.184 145.686, 466 147.333 M 32.494 152.009 C 31.432 153.727, 33.039 157, 34.945 157 C 37.748 157, 39.542 154.358, 38 152.500 C 36.580 150.789, 33.423 150.507, 32.494 152.009 M 264.808 154.689 C 256.704 157.393, 257.209 161.449, 266.210 165.947 C 269.570 167.626, 273.157 169, 274.182 169 C 275.916 169, 285.961 173.474, 290.500 176.269 C 291.600 176.946, 295.016 179.412, 298.091 181.750 C 306.615 188.229, 307.929 187.521, 307.346 176.758 C 306.700 164.826, 298.996 158.194, 281.500 154.509 C 272.858 152.689, 270.734 152.712, 264.808 154.689 M 365.250 154.662 C 364.563 154.940, 364 155.804, 364 156.583 C 364 157.363, 363.550 158, 363 158 C 362.450 158, 362 159.350, 362 161 C 362 162.650, 362.450 164, 363 164 C 364.624 164, 364.149 165.851, 361.964 168.036 C 360.177 169.823, 359.750 169.893, 358.464 168.607 C 357.659 167.802, 357 165.761, 357 164.071 C 357 162.008, 356.508 161, 355.500 161 C 354.675 161, 354 160.550, 354 160 C 354 159.450, 352.425 159, 350.500 159 C 348.575 159, 347 159.450, 347 160 C 347 161.434, 340.669 161.236, 338.980 159.750 C 338.199 159.063, 339.827 160.975, 342.599 164 C 357.058 179.782, 366.736 197.212, 372.241 217.388 C 374.156 224.405, 374.448 227.929, 374.404 243.500 C 374.358 259.772, 374.097 262.458, 371.677 271.477 C 366.417 291.080, 355.319 309.551, 339.583 324.892 C 332.129 332.158, 330.588 335.188, 333.077 337.677 C 333.825 338.425, 335.278 338.449, 337.827 337.754 C 339.847 337.203, 343.863 336.542, 346.750 336.284 C 349.637 336.026, 352 335.407, 352 334.907 C 352 334.408, 354.700 334, 358 334 C 361.455 334, 364 333.563, 364 332.969 C 364 332.401, 365.575 332.043, 367.500 332.173 C 369.425 332.303, 371 332.767, 371 333.204 C 371 333.642, 370.514 334, 369.921 334 C 368.448 334, 369.726 339.500, 372.107 343.417 C 373.138 345.113, 374.338 346.500, 374.773 346.500 C 375.208 346.500, 378.578 349.695, 382.262 353.600 C 385.946 357.506, 390.911 361.736, 393.296 363.001 L 397.631 365.301 395.816 368.862 C 393.652 373.106, 393.588 374.055, 395.311 376.411 C 396.469 377.994, 396.575 377.798, 396.217 374.737 C 395.874 371.791, 396.267 370.946, 398.836 369.117 C 400.499 367.933, 402.109 367.367, 402.413 367.859 C 402.717 368.351, 405.111 369.293, 407.733 369.952 C 414.317 371.607, 416.050 373.340, 414.951 377.170 C 414.474 378.833, 413.516 380.938, 412.822 381.847 C 412.128 382.756, 412.797 382.397, 414.309 381.049 C 415.821 379.700, 416.993 377.900, 416.914 377.049 C 416.579 373.443, 416.995 373.195, 423 373.433 C 426.300 373.564, 429 373.269, 429 372.777 C 429 372.285, 429.441 372.154, 429.979 372.487 C 430.518 372.820, 431.916 372.580, 433.087 371.954 C 434.549 371.171, 435.537 371.137, 436.246 371.846 C 438.086 373.686, 452.580 367.348, 457.594 362.511 C 460.256 359.942, 463.985 352.789, 465.909 346.558 C 468.202 339.136, 468.687 335.374, 467.013 338 C 466.336 339.061, 466.190 338.477, 466.511 336 C 466.761 334.075, 467.452 326.875, 468.046 320 C 468.641 313.125, 469.372 306.488, 469.672 305.250 C 470.195 303.091, 469.953 303, 463.690 303 C 460.101 303, 456.510 302.749, 455.711 302.442 C 453.380 301.548, 451.228 304.586, 450 310.501 C 449.372 313.525, 448.392 316, 447.822 316 C 447.252 316, 447.034 316.646, 447.337 317.435 C 447.640 318.225, 447.530 319.012, 447.094 319.185 C 446.657 319.358, 445.640 321.501, 444.834 323.947 C 443.713 327.350, 442.445 328.923, 439.434 330.645 C 437.270 331.883, 434.729 332.669, 433.788 332.392 C 431.903 331.839, 429.033 333.109, 426.541 335.602 C 425.653 336.490, 423.931 337.213, 422.713 337.208 C 420.067 337.199, 407.500 336.182, 407.500 335.977 C 407.500 335.898, 406.472 335.720, 405.215 335.581 C 401.741 335.198, 400.557 333.399, 400.393 328.262 C 400.312 325.688, 399.740 323.413, 399.122 323.207 C 398.505 323.002, 398 323.321, 398 323.917 C 398 324.512, 397.325 325, 396.500 325 C 395.675 325, 395 325.450, 395 326 C 395 326.550, 393.425 327, 391.500 327 C 389.575 327, 388 326.550, 388 326 C 388 325.450, 389.125 325, 390.500 325 C 391.875 325, 393 324.550, 393 324 C 393 323.450, 393.918 323, 395.039 323 C 396.160 323, 398.936 321.161, 401.207 318.913 C 404.541 315.611, 405.062 314.635, 403.918 313.836 C 402.832 313.079, 402.792 312.729, 403.750 312.341 C 405.380 311.679, 405.372 309, 403.740 309 C 403.047 309, 401.266 310.125, 399.783 311.500 C 398.301 312.875, 396.618 314, 396.044 314 C 395.470 314, 395 314.450, 395 315 C 395 315.550, 395.450 316, 396 316 C 396.550 316, 397 316.450, 397 317 C 397 317.550, 396.100 318, 395 318 C 393.900 318, 393 318.450, 393 319 C 393 319.550, 391.875 320, 390.500 320 C 389.125 320, 388 320.430, 388 320.955 C 388 321.480, 386.425 322.205, 384.500 322.566 C 382.575 322.927, 381 323.623, 381 324.111 C 381 324.600, 379.200 325, 377 325 C 374.800 325, 373 325.450, 373 326 C 373 326.550, 370.975 327, 368.500 327 C 366.025 327, 364 327.450, 364 328 C 364 328.550, 362.904 329, 361.565 329 C 360.226 329, 356.064 329.634, 352.315 330.408 C 347.933 331.314, 344.072 331.533, 341.500 331.023 C 339.300 330.587, 338.512 330.178, 339.750 330.115 C 340.988 330.052, 342 329.637, 342 329.192 C 342 328.748, 343.913 327.558, 346.250 326.547 C 350.689 324.626, 353.202 322.547, 354.179 319.984 C 354.498 319.150, 356.050 317.860, 357.629 317.117 C 359.208 316.374, 361.288 315.365, 362.250 314.875 C 363.349 314.315, 364 314.358, 364 314.992 C 364 315.546, 365.125 316, 366.500 316 C 367.875 316, 369 315.550, 369 315 C 369 314.408, 372.660 314, 377.980 314 C 383.898 314, 388.330 313.452, 390.980 312.391 C 395.280 310.671, 396.275 309, 393 309 C 391.900 309, 391 308.775, 391 308.499 C 391 307.742, 399.138 300, 399.934 300 C 400.941 300, 399.913 287.563, 398.874 287.167 C 398.393 286.983, 398 285.056, 398 282.885 C 398 280.713, 397.325 277.320, 396.500 275.346 C 395.675 273.371, 395 270.461, 395 268.878 C 395 267.295, 394.550 266, 394 266 C 391.885 266, 393.006 260.470, 395.500 258.597 C 396.875 257.565, 398 256.333, 398 255.860 C 398 255.387, 396.875 255, 395.500 255 C 393.667 255, 393 254.467, 393 253 C 393 251.900, 392.550 251, 392 251 C 391.450 251, 391 251.450, 391 252 C 391 253.508, 389.058 253.201, 387.266 251.409 C 385.915 250.058, 385.888 249.684, 387.088 248.925 C 387.865 248.433, 388.837 248.024, 389.250 248.015 C 390.394 247.992, 390.144 240, 389 240 C 388.450 240, 388 239.138, 388 238.083 C 388 237.029, 387.525 236.008, 386.945 235.815 C 385.407 235.302, 383.885 225.190, 383.323 211.750 C 383.053 205.287, 382.420 200, 381.916 200 C 381.412 200, 381 198.629, 381 196.952 C 381 194.986, 380.113 193.082, 378.500 191.588 C 375.533 188.838, 375.073 184.083, 377.750 183.842 C 378.712 183.756, 380.175 183.725, 380.999 183.773 C 381.824 183.821, 382.859 183.217, 383.299 182.430 C 384.959 179.464, 386 181.199, 386 186.935 C 386 193.689, 388.110 204.696, 390.638 211.135 C 392.869 216.814, 400.338 229.180, 402.276 230.402 C 404.041 231.515, 406.345 229.640, 407.435 226.203 C 407.820 224.992, 408.554 224, 409.067 224 C 409.580 224, 410 223.100, 410 222 C 410 220.900, 410.450 220, 411 220 C 411.550 220, 412 220.900, 412 222 C 412 224.343, 413.552 224.591, 415.571 222.571 C 417.201 220.942, 417.504 217, 416 217 C 415.413 217, 414.982 213.387, 414.956 208.250 C 414.931 203.262, 414.293 197.780, 413.471 195.500 C 412.679 193.300, 412.023 190.262, 412.015 188.750 C 412.007 187.238, 411.550 186, 411 186 C 410.450 186, 410 185.273, 410 184.384 C 410 181.873, 401.971 174.778, 400.081 175.620 C 399.212 176.007, 396.813 176.523, 394.750 176.767 C 392.688 177.011, 391 177.613, 391 178.105 C 391 179.468, 384.027 179.172, 382.623 177.750 C 381.944 177.063, 381.028 175.600, 380.588 174.500 C 379.809 172.551, 379.762 172.558, 378.741 174.750 C 377.207 178.047, 376 177.497, 376 173.500 C 376 171.575, 376.482 170, 377.071 170 C 379.102 170, 381 167.135, 381 164.071 C 381 160.730, 380.333 160.251, 378.610 162.357 C 377.867 163.265, 376.095 163.561, 373.250 163.252 C 369.848 162.882, 369 162.398, 369 160.824 C 369 159.742, 369.679 158.178, 370.509 157.348 C 371.339 156.518, 371.763 155.425, 371.450 154.919 C 370.852 153.952, 367.369 153.807, 365.250 154.662 M 374 158 C 374 158.550, 374.450 159, 375 159 C 375.550 159, 376 158.550, 376 158 C 376 157.450, 375.550 157, 375 157 C 374.450 157, 374 157.450, 374 158 M 465.500 157.945 C 459.415 160.436, 457.850 167.941, 462.455 172.545 C 466.053 176.144, 472.856 175.994, 477.077 172.223 C 483.600 166.394, 479.921 156.914, 471.194 157.063 C 469.162 157.098, 466.600 157.495, 465.500 157.945 M 126.500 164.593 C 125.400 165.434, 118.088 169.357, 110.252 173.311 C 102.415 177.265, 96.004 180.725, 96.005 181 C 96.006 181.275, 100.618 182.504, 106.254 183.732 L 116.500 185.964 132.750 177.845 C 141.688 173.379, 149 169.391, 149 168.984 C 149 167.963, 144.785 166.482, 136.500 164.592 C 128.189 162.696, 128.981 162.696, 126.500 164.593 M 156.122 179.278 C 154.330 181.070, 154.779 184, 156.845 184 C 158.884 184, 162.610 180.460, 161.315 179.753 C 158.910 178.440, 157.123 178.277, 156.122 179.278 M 10.550 180.875 C 11.072 181.357, 36.250 187.229, 66.500 193.924 C 96.750 200.620, 122.625 206.364, 124 206.690 C 125.375 207.015, 126.209 206.965, 125.854 206.578 C 125.499 206.192, 117.399 204.083, 107.854 201.892 C 65.287 192.120, 11.417 180.001, 10.550 180 C 9.950 180, 9.950 180.323, 10.550 180.875 M 153.250 187.496 C 152.563 188.277, 152 189.179, 152 189.500 C 152 190.061, 150.939 191.464, 148.250 194.463 C 146.777 196.106, 146.488 213, 147.933 213 C 148.446 213, 149.135 213.851, 149.466 214.891 C 149.825 216.024, 151.256 216.957, 153.033 217.218 C 155.597 217.594, 156 217.338, 156 215.327 C 156 214.047, 155.633 213, 155.184 213 C 154.735 213, 153.336 210.511, 152.076 207.469 C 149.607 201.513, 149.955 199.037, 154.110 193 C 156.601 189.381, 157.432 185.991, 155.817 186.038 C 155.093 186.059, 153.938 186.715, 153.250 187.496 M 450.849 196.750 C 449.849 208.357, 458.339 216.076, 471.946 215.930 C 479.762 215.846, 482.872 214.942, 480.847 213.342 C 478.700 211.646, 452.077 195, 451.512 195 C 451.230 195, 450.932 195.787, 450.849 196.750 M 244 243.965 C 244 265.984, 244.256 284, 244.570 284 C 244.883 284, 247.021 282.717, 249.320 281.148 C 256.911 275.969, 257.979 275.608, 259.609 277.671 C 260.404 278.677, 261.960 281.300, 263.068 283.500 C 265.256 287.844, 271.548 295.682, 270.400 292.634 C 269.787 291.007, 269.960 290.908, 271.748 291.865 C 273.375 292.736, 273.922 292.645, 274.389 291.430 C 274.787 290.392, 274.577 290.137, 273.739 290.640 C 272.770 291.222, 272.760 291.063, 273.693 289.908 C 275.160 288.093, 278.194 271.223, 278.347 264.030 C 278.376 262.672, 279.483 260.628, 280.807 259.490 C 283.081 257.534, 285.449 252.558, 286.742 247.018 C 287.384 244.271, 289.278 242, 290.929 242 C 291.518 242, 292 241.580, 292 241.067 C 292 240.554, 292.900 239.849, 294 239.500 C 296.695 238.645, 296.517 237.557, 293.453 236.161 C 290.333 234.739, 289.699 234.704, 290.500 236 C 290.840 236.550, 290.215 237, 289.111 237 C 286.440 237, 281.613 232.450, 282.322 230.602 C 282.657 229.730, 281.827 228.462, 280.241 227.422 C 278.430 226.236, 277.482 226.055, 277.218 226.847 C 277.006 227.481, 276.216 228, 275.462 228 C 274.708 228, 272.966 229.125, 271.591 230.500 C 270.216 231.875, 268.170 233, 267.045 233 C 265.920 233, 265 233.450, 265 234 C 265 234.550, 262.975 235, 260.500 235 C 258.025 235, 256 234.550, 256 234 C 256 233.450, 255.397 233, 254.661 233 C 252.056 233, 250.149 225.796, 249.620 213.956 C 249.346 207.822, 248.806 206.502, 245.944 204.970 C 244.034 203.948, 244 204.622, 244 243.965 M 61.750 209.662 C 62.438 209.940, 63.563 209.940, 64.250 209.662 C 64.938 209.385, 64.375 209.158, 63 209.158 C 61.625 209.158, 61.063 209.385, 61.750 209.662 M 66.500 210.564 C 68.125 211.223, 120.796 223, 122.121 223 C 125.587 223, 120.021 221.562, 95.219 216.049 C 71.331 210.739, 63.020 209.151, 66.500 210.564 M 152 226 C 152 230.339, 153.399 231.372, 154.370 227.750 C 155.378 223.988, 155.077 222, 153.500 222 C 152.417 222, 152 223.111, 152 226 M 45.073 226.378 C 42.639 227.028, 40.481 228.057, 40.278 228.665 C 40.076 229.273, 41.977 236.460, 44.503 244.635 C 47.029 252.811, 50.684 264.672, 52.626 270.994 C 54.567 277.316, 56.290 282.624, 56.456 282.789 C 57.345 283.679, 66 280.574, 66 279.365 C 66 278.098, 55.568 230.900, 54.370 226.750 C 53.793 224.749, 51.516 224.658, 45.073 226.378 M 100 235.044 C 115.863 238.768, 119.842 239.508, 118.894 238.561 C 118.243 237.909, 86.929 230.986, 85.083 231.085 C 84.212 231.132, 90.925 232.913, 100 235.044 M 399.667 233.667 C 398.452 234.881, 398.976 235.947, 400.500 235.362 C 401.325 235.045, 402 234.384, 402 233.893 C 402 232.845, 400.622 232.711, 399.667 233.667 M 412.500 238.475 C 410.850 240.363, 409.130 241.929, 408.679 241.954 C 407.230 242.035, 404.735 245.070, 405.518 245.798 C 405.934 246.184, 406.475 245.938, 406.720 245.250 C 406.966 244.563, 407.804 244, 408.583 244 C 409.363 244, 410 243.550, 410 243 C 410 242.450, 410.470 242, 411.045 242 C 412.403 242, 417 237.403, 417 236.045 C 417 234.190, 415.568 234.963, 412.500 238.475 M 130 243.500 C 130 244.325, 130.257 245, 130.571 245 C 130.886 245, 131.818 244.325, 132.643 243.500 C 133.976 242.167, 133.913 242, 132.071 242 C 130.897 242, 130 242.649, 130 243.500 M 263 253 C 263 254.100, 263.450 255, 264 255 C 264.550 255, 265 254.100, 265 253 C 265 251.900, 264.550 251, 264 251 C 263.450 251, 263 251.900, 263 253 M 386 270 C 386 270.550, 386.450 271, 387 271 C 387.550 271, 388 272.795, 388 274.989 C 388 278.677, 390.278 283, 392.222 283 C 393.553 283, 393.079 279.238, 391.250 275.284 C 388.856 270.108, 386 267.233, 386 270 M 452.557 279.223 C 451.701 280.445, 451 281.864, 451 282.376 C 451 283.887, 445.820 294.443, 444.737 295.138 C 443.517 295.922, 444.673 298.010, 446.309 297.974 C 446.964 297.960, 448.256 296.273, 449.181 294.224 C 450.105 292.176, 452.018 287.941, 453.431 284.814 C 454.844 281.687, 456 278.649, 456 278.064 C 456 276.272, 454.199 276.878, 452.557 279.223 M 383.550 285.750 C 383.110 287.538, 382.356 289, 381.875 289 C 381.394 289, 381 289.450, 381 290 C 381 290.550, 382.575 291, 384.500 291 C 386.425 291, 388 290.550, 388 290 C 388 289.450, 387.354 289, 386.563 289 C 385.689 289, 384.975 287.729, 384.739 285.750 L 384.351 282.500 383.550 285.750 M 62.888 294.500 C 53.071 299.835, 61.082 314.629, 71.009 309.496 C 76.777 306.513, 76.737 297.466, 70.941 294.470 C 67.467 292.673, 66.240 292.678, 62.888 294.500 M 393 296 C 393 297.100, 393.450 298, 394 298 C 394.550 298, 395 297.100, 395 296 C 395 294.900, 394.550 294, 394 294 C 393.450 294, 393 294.900, 393 296 M 276.988 297.154 C 271.637 298.973, 271.212 304.158, 275.625 313.791 C 277.452 317.780, 282.771 324, 284.354 323.999 C 284.984 323.999, 287.289 322.406, 289.476 320.460 C 291.663 318.513, 294.782 316.258, 296.407 315.447 C 299.161 314.073, 299.603 314.137, 302.931 316.397 C 304.894 317.730, 307.709 319.978, 309.187 321.392 C 311.619 323.720, 312.303 323.883, 316.405 323.117 C 318.897 322.651, 321.117 322.450, 321.337 322.671 C 321.832 323.165, 325 316.615, 325 315.099 C 325 314.494, 326.320 314, 327.933 314 C 329.987 314, 331.055 314.599, 331.500 316 C 331.849 317.100, 332.517 318, 332.984 318 C 334.426 318, 334.703 315.673, 333.607 312.770 C 332.867 310.808, 331.865 310, 330.172 310 C 328.161 310, 327.877 309.627, 328.375 307.640 C 329.027 305.044, 327.498 303.246, 322.500 300.733 C 320.260 299.606, 317.728 299.379, 312.500 299.834 C 308.650 300.169, 300.682 300.456, 294.793 300.472 C 285.237 300.497, 283.923 300.285, 282.575 298.500 C 281.744 297.400, 281.042 296.950, 281.016 297.500 C 280.989 298.086, 280.665 298.044, 280.235 297.400 C 279.760 296.689, 278.612 296.602, 276.988 297.154 M 367 308 C 367 308.550, 367.477 309, 368.059 309 C 368.641 309, 368.840 308.550, 368.500 308 C 368.160 307.450, 367.684 307, 367.441 307 C 367.198 307, 367 307.450, 367 308 M 143.750 320.080 C 142.709 320.686, 142 322.295, 142 324.050 C 142 325.672, 141.550 327, 141 327 C 140.450 327, 140 327.675, 140 328.500 C 140 329.325, 140.418 330, 140.929 330 C 142.540 330, 145 326.936, 145 324.929 C 145 323.868, 145.450 323, 146 323 C 146.550 323, 147 322.100, 147 321 C 147 318.771, 146.325 318.580, 143.750 320.080 M 292 320.573 C 292 321.505, 292.680 322.015, 293.667 321.823 C 296.176 321.337, 296.520 319, 294.083 319 C 292.855 319, 292 319.646, 292 320.573 M 294.093 324.943 C 293.327 325.416, 293.075 326.313, 293.510 327.017 C 294.084 327.945, 294.517 327.828, 295.230 326.553 C 296.387 324.486, 295.914 323.817, 294.093 324.943 M 305.571 325.571 C 304.707 326.436, 304 327.786, 304 328.571 C 304 330.330, 306.165 330.435, 307.842 328.758 C 308.830 327.770, 309.273 327.820, 310.015 329.008 C 310.664 330.047, 310.523 330.594, 309.550 330.809 C 308.782 330.978, 307.433 332.216, 306.554 333.559 C 305.602 335.010, 303.993 336, 302.584 336 C 301.280 336, 299.955 336.675, 299.638 337.500 C 298.638 340.106, 297 339.125, 297 335.921 C 297 333.019, 296.827 332.879, 294 333.500 C 292.113 333.915, 291 333.759, 291 333.079 C 291 332.486, 291.450 332, 292 332 C 293.923 332, 292.981 329.228, 290.870 328.676 C 289.447 328.304, 288.939 327.601, 289.339 326.560 C 290.382 323.842, 288.335 324.872, 285.619 328.432 C 284.179 330.320, 282.151 332.135, 281.112 332.464 C 279.028 333.126, 274.662 339.231, 273.766 342.738 C 273.203 344.940, 275.849 349.518, 278.714 351.300 C 281.622 353.108, 279.588 354, 272.559 354 C 268.443 354, 264.828 354.469, 264.469 355.050 C 264.030 355.760, 267.164 356.054, 274.160 355.958 C 279.847 355.880, 285.252 356.117, 286.172 356.485 C 287.091 356.853, 288.832 356.625, 290.040 355.978 C 292.998 354.396, 300 357.378, 300 360.220 C 300 361.274, 302.081 364.131, 304.625 366.568 C 308.979 370.740, 312 372.173, 312 370.067 C 312 369.554, 312.900 368.849, 314 368.500 C 315.247 368.104, 316 366.987, 316 365.531 C 316 362.917, 312.651 360.593, 304.500 357.550 C 301.750 356.523, 299.252 355.311, 298.949 354.855 C 298.646 354.400, 296.846 353.858, 294.949 353.651 C 291.164 353.238, 289.949 350.971, 292.115 348.361 C 293.111 347.162, 294.549 346.963, 298.588 347.468 C 303.525 348.085, 303.885 347.970, 305.890 345.154 C 307.051 343.524, 308.014 341.586, 308.030 340.846 C 308.050 339.967, 308.415 340.107, 309.080 341.250 C 310.329 343.394, 312 343.537, 312 341.500 C 312 340.675, 312.788 339.982, 313.750 339.960 C 314.998 339.931, 314.711 339.492, 312.750 338.428 C 309.725 336.787, 309.170 333.934, 311.500 332 C 313.594 330.262, 313.375 328.701, 310.686 326.174 C 307.924 323.580, 307.601 323.542, 305.571 325.571 M 468.079 331.583 C 468.127 332.748, 468.364 332.985, 468.683 332.188 C 468.972 331.466, 468.936 330.603, 468.604 330.271 C 468.272 329.939, 468.036 330.529, 468.079 331.583 M 147 337.417 C 147 339.296, 146.438 341.060, 145.750 341.338 C 145.063 341.615, 146.188 341.878, 148.250 341.921 C 151.360 341.987, 152 341.658, 152 340 C 152 338.889, 151.333 338, 150.500 338 C 149.667 338, 149 337.111, 149 336 C 149 334.900, 148.550 334, 148 334 C 147.450 334, 147 335.538, 147 337.417 M 90.079 336.583 C 90.127 337.748, 90.364 337.985, 90.683 337.188 C 90.972 336.466, 90.936 335.603, 90.604 335.271 C 90.272 334.939, 90.036 335.529, 90.079 336.583 M 34.174 338.750 C 33.681 339.712, 32.991 342.750, 32.642 345.500 L 32.007 350.500 34.631 345 C 36.074 341.975, 37.703 338.938, 38.250 338.250 C 38.981 337.331, 38.691 337, 37.158 337 C 36.010 337, 34.667 337.788, 34.174 338.750 M 91.116 347.872 C 91.015 354.320, 91.188 355.089, 92.500 354 C 94.142 352.638, 94.538 346.966, 93.097 345.450 C 92.600 344.928, 91.978 343.600, 91.713 342.500 C 91.448 341.400, 91.180 343.818, 91.116 347.872 M 315 342 C 315 342.550, 315.450 343, 316 343 C 316.550 343, 317 342.550, 317 342 C 317 341.450, 316.550 341, 316 341 C 315.450 341, 315 341.450, 315 342 M 315 344.933 C 315 345.520, 315.466 346, 316.035 346 C 316.719 346, 316.688 346.714, 315.943 348.107 C 315.118 349.648, 314.517 349.917, 313.707 349.107 C 312.078 347.478, 308.029 347.760, 307.342 349.551 C 306.744 351.109, 310.489 356, 312.280 356 C 312.792 356, 314.502 357.086, 316.079 358.413 C 318.957 360.835, 322.995 360.963, 323.005 358.633 C 323.007 358.010, 324.537 355.837, 326.404 353.804 C 329.407 350.535, 329.641 349.899, 328.431 348.304 C 327.157 346.623, 327.059 346.670, 327.001 349 C 326.945 351.248, 326.832 351.316, 325.879 349.677 C 324.873 347.947, 324.721 347.942, 322.909 349.582 C 321.094 351.225, 320.999 351.216, 320.985 349.405 C 320.976 348.357, 320.639 346.998, 320.235 346.385 C 319.181 344.785, 315 343.625, 315 344.933 M 137 346 C 137 346.550, 137.450 347, 138 347 C 138.550 347, 139 346.550, 139 346 C 139 345.450, 138.550 345, 138 345 C 137.450 345, 137 345.450, 137 346 M 378.500 353 C 379.495 354.100, 380.535 355, 380.810 355 C 381.085 355, 380.495 354.100, 379.500 353 C 378.505 351.900, 377.465 351, 377.190 351 C 376.915 351, 377.505 351.900, 378.500 353 M 203 353 C 203 353.550, 203.450 354, 204 354 C 204.550 354, 205 353.550, 205 353 C 205 352.450, 204.550 352, 204 352 C 203.450 352, 203 352.450, 203 353 M 212 353 C 212 353.550, 213.125 354, 214.500 354 C 215.875 354, 217 353.550, 217 353 C 217 352.450, 215.875 352, 214.500 352 C 213.125 352, 212 352.450, 212 353 M 30.079 354.583 C 30.127 355.748, 30.364 355.985, 30.683 355.188 C 30.972 354.466, 30.936 353.603, 30.604 353.271 C 30.272 352.939, 30.036 353.529, 30.079 354.583 M 218 355 C 216.787 355.784, 216.931 355.972, 218.750 355.985 C 219.988 355.993, 221 355.550, 221 355 C 221 353.747, 219.939 353.747, 218 355 M 241 357.094 C 241 357.592, 241.900 358, 243 358 C 244.100 358, 245 357.827, 245 357.617 C 245 357.406, 244.100 356.998, 243 356.710 C 241.900 356.423, 241 356.595, 241 357.094 M 236.750 357.662 C 237.438 357.940, 238.563 357.940, 239.250 357.662 C 239.938 357.385, 239.375 357.158, 238 357.158 C 236.625 357.158, 236.063 357.385, 236.750 357.662 M 128 362 C 128 363.650, 128.450 365, 129 365 C 129.550 365, 130 365.482, 130 366.071 C 130 367.456, 132.544 370, 133.929 370 C 134.518 370, 135 370.450, 135 371 C 135 371.550, 136.125 372, 137.500 372 C 140.545 372, 140.705 373.079, 137.917 374.820 C 134.083 377.214, 131.579 384.654, 131.631 393.500 C 131.657 397.900, 132.146 402.625, 132.719 404 L 133.760 406.500 135.565 402.750 C 136.558 400.688, 137.714 399, 138.133 399 C 139.171 399, 137.186 404.474, 134.351 409.432 C 131.264 414.829, 131.380 416, 135 416 C 137.309 416, 138 416.450, 138 417.953 C 138 420.881, 135.861 425, 134.339 425 C 133.603 425, 133 425.430, 133 425.955 C 133 427.816, 126.128 428.314, 123.571 426.638 C 120.294 424.491, 115.010 418.767, 115.005 417.357 C 115.002 416.728, 114.325 415.955, 113.500 415.638 C 112.675 415.322, 112 414.551, 112 413.925 C 112 413.300, 110.717 411.148, 109.148 409.144 C 106.392 405.621, 105.451 403.082, 100.946 387 C 99.790 382.875, 98.453 378.600, 97.974 377.500 C 97.495 376.400, 96.923 374.600, 96.704 373.500 C 96.329 371.624, 96.246 371.644, 95.351 373.830 C 94.301 376.393, 96.762 396.943, 99.384 407.500 C 101.983 417.970, 106.086 429.400, 108.942 434.132 C 110.060 435.984, 111.381 438.400, 111.876 439.500 C 112.705 441.340, 116.296 445.083, 124.784 452.954 C 128.795 456.673, 132.057 456.821, 136.435 453.481 L 139.737 450.963 140.387 455.860 C 141.834 466.770, 150.014 486.151, 154.910 490.271 C 157.627 492.557, 159.096 493, 163.955 493 C 168.533 493, 170.045 493.405, 171.128 494.920 C 172.458 496.782, 172.990 496.797, 188.500 495.400 C 197.300 494.608, 206.075 493.517, 208 492.977 C 211.435 492.013, 266.554 486.743, 269.829 487.066 C 273.485 487.426, 276.087 486.949, 275.515 486.025 C 274.993 485.179, 271.226 447.813, 269.338 424.750 C 268.659 416.459, 268.461 416.246, 263.149 418.098 C 261.105 418.810, 260 419.863, 260 421.098 C 260 422.144, 259.539 423, 258.975 423 C 258.412 423, 257.523 424.125, 257 425.500 C 256.477 426.875, 255.588 428, 255.025 428 C 254.461 428, 253.985 428.563, 253.967 429.250 C 253.948 429.938, 253.047 431.564, 251.963 432.865 C 250.375 434.772, 248.729 435.332, 243.481 435.754 C 237.682 436.219, 236.904 436.534, 236.378 438.631 C 236.053 439.926, 235.416 440.757, 234.962 440.477 C 234.509 440.197, 233.856 440.425, 233.510 440.984 C 233.165 441.543, 231.732 442, 230.326 442 C 227.811 442, 227.781 442.089, 228.457 447.500 C 228.909 451.119, 228.784 453, 228.091 453 C 226.970 453, 226.834 452.546, 224.541 441.141 C 222.987 433.409, 219.217 425.777, 215.941 423.731 C 214.874 423.064, 214 421.530, 214 420.321 C 214 418.455, 214.718 418.026, 218.750 417.481 C 230.810 415.853, 239.241 411.016, 244.312 402.814 C 245.882 400.274, 247.290 396.690, 247.441 394.848 C 247.592 393.007, 247.779 391.163, 247.858 390.750 C 247.936 390.337, 249.345 390, 250.989 390 C 255.741 390, 258 387.350, 258 381.778 C 258 377.348, 257.818 377, 255.500 377 C 252.911 377, 252.060 378.520, 254.241 379.247 C 256.104 379.868, 252.624 383, 250.071 383 C 248.932 383, 248 383.450, 248 384 C 248 384.550, 246.463 385, 244.583 385 C 242.704 385, 241.009 385.472, 240.817 386.049 C 240.296 387.613, 224.470 387.316, 209.500 385.461 C 202.350 384.575, 194.129 383.602, 191.232 383.300 C 188.334 382.997, 185.720 382.356, 185.423 381.875 C 185.125 381.394, 182.884 381, 180.441 381 C 177.998 381, 176 380.550, 176 380 C 176 379.450, 173.750 379, 171 379 C 168.250 379, 166 378.639, 166 378.197 C 166 377.487, 161.152 376.076, 152.750 374.341 C 151.238 374.029, 150 373.374, 150 372.887 C 150 372.399, 148.875 372, 147.500 372 C 146.125 372, 145 371.550, 145 371 C 145 370.450, 144.084 370, 142.965 370 C 141.047 370, 136.822 367.777, 134.419 365.503 C 133.824 364.940, 133.028 363.247, 132.650 361.740 C 131.640 357.719, 128 357.922, 128 362 M 28.549 362.250 C 27.871 364.481, 27.615 365.363, 24.558 376 C 22.061 384.693, 19 407.266, 19 416.993 C 19 428.041, 21.057 437.147, 25.540 445.943 C 27.443 449.678, 29 453.725, 29 454.938 C 29 456.151, 29.635 457.778, 30.411 458.554 C 31.187 459.329, 32.010 460.531, 32.241 461.223 C 32.562 462.186, 33.038 462.131, 34.266 460.991 C 40.502 455.199, 43.921 452.302, 46.047 451.010 C 47.396 450.190, 51.213 446.783, 54.529 443.438 C 62.847 435.048, 71.609 417.613, 77.112 398.500 C 81.142 384.504, 81.835 381.376, 82.430 374.500 L 83.037 367.500 80.644 374.062 C 79.329 377.671, 77.805 381.496, 77.258 382.562 C 75.505 385.980, 67.800 405.420, 67.274 407.750 C 66.995 408.988, 66.405 410, 65.963 410 C 65.521 410, 64.862 411.350, 64.500 413 C 64.138 414.650, 63.427 416, 62.921 416 C 62.414 416, 62 416.441, 62 416.979 C 62 417.864, 56.952 422.871, 50.280 428.604 C 46.158 432.147, 34.574 432.661, 33.307 429.358 C 33.020 428.611, 32.352 428, 31.822 428 C 25.915 428, 25.286 409.649, 29.908 372.134 C 30.475 367.533, 31.208 362.920, 31.537 361.884 C 31.935 360.630, 31.650 360, 30.684 360 C 29.886 360, 28.925 361.012, 28.549 362.250 M 256.015 363.750 C 256.007 365.538, 256.450 367, 257 367 C 258.270 367, 258.270 363.965, 257 362 C 256.264 360.862, 256.027 361.284, 256.015 363.750 M 353.500 369.189 L 351.500 371.259 353.857 370.037 C 355.437 369.218, 356.546 369.146, 357.220 369.820 C 357.893 370.493, 356.818 371.844, 353.962 373.912 C 348.803 377.650, 347.209 377.856, 349.408 374.500 C 351.823 370.815, 350.614 371.439, 345.572 376.481 C 339.075 382.978, 332.492 382.946, 329.386 376.402 C 327.795 373.048, 327.670 372.988, 325.803 374.679 C 323.975 376.333, 323.964 376.500, 325.611 377.705 C 328.190 379.591, 326.785 380.199, 322.382 379.103 C 316.655 377.676, 303.128 373.085, 298.223 370.903 C 292.241 368.241, 291.944 368.501, 296.485 372.425 L 300.448 375.850 297.724 376.533 C 296.226 376.909, 295 377.618, 295 378.108 C 295 378.599, 294.325 379, 293.500 379 C 292.675 379, 292 379.450, 292 380 C 292 380.550, 291.325 381, 290.500 381 C 289.675 381, 289 381.675, 289 382.500 C 289 383.362, 288.098 384, 286.878 384 C 285.182 384, 284.986 384.279, 285.906 385.386 C 287.933 387.829, 294.051 385.467, 297.442 380.933 C 300.023 377.482, 300.881 377.001, 304.442 377.006 C 311.245 377.015, 315.670 378.846, 321.278 383.971 C 324.227 386.666, 327.846 389.174, 329.320 389.544 C 332.524 390.348, 332.653 391.099, 330 393.500 C 328.900 394.495, 328 396.539, 328 398.041 C 328 400.160, 328.757 401.131, 331.378 402.375 C 333.235 403.256, 335.524 405.151, 336.463 406.584 C 337.921 408.809, 338.659 409.099, 341.505 408.565 C 344.667 407.972, 345.360 408.450, 354.920 417.825 C 360.464 423.261, 365 428.213, 365 428.827 C 365 429.442, 366.082 432.320, 367.405 435.223 C 368.728 438.125, 371.021 443.875, 372.502 448 C 373.982 452.125, 375.825 456.918, 376.597 458.651 C 377.369 460.384, 378 462.297, 378 462.901 C 378 463.506, 378.450 464, 379 464 C 379.550 464, 380 464.684, 380 465.520 C 380 466.356, 381.125 468.822, 382.500 471 C 383.875 473.178, 385 475.198, 385 475.489 C 385 477.678, 395.576 489.822, 401.992 495 C 404.378 496.925, 406.818 498.970, 407.415 499.544 C 408.012 500.119, 411.625 503.156, 415.445 506.294 L 422.389 512 445.798 512 L 469.207 512 475.853 505.154 C 485.214 495.513, 486.192 494.298, 490.468 487 C 494.739 479.711, 496.970 472.593, 496.988 466.207 C 497.001 461.427, 495.311 459.443, 478.065 444 C 473.458 439.875, 468.296 435.239, 466.594 433.698 C 463.013 430.454, 453.114 423.414, 448.012 420.482 C 442.504 417.316, 415.891 407.413, 407.250 405.314 C 405.205 404.817, 405 405.126, 405 408.701 C 405 412.616, 405.028 412.643, 410.750 414.426 C 417.297 416.466, 431.151 422.649, 431.961 423.893 C 432.257 424.348, 433.939 425.458, 435.698 426.359 C 439.664 428.391, 444.422 434.458, 443.642 436.490 C 442.704 438.935, 437.889 438.249, 430.440 434.609 C 426.623 432.744, 420.350 429.789, 416.500 428.042 C 412.650 426.296, 408.160 424.249, 406.521 423.494 C 403.112 421.924, 402.592 422.361, 400.991 428.138 C 400.217 430.932, 399.348 431.909, 397.242 432.351 C 388.008 434.289, 388.444 434.331, 386.540 431.338 C 384.401 427.975, 357.131 401, 355.870 401 C 354.160 401, 355.088 399.263, 361.500 390.462 C 369.172 379.931, 370.035 375.905, 365 374.150 C 363.350 373.575, 362 372.571, 362 371.919 C 362 370.473, 358.113 366.977, 356.597 367.059 C 355.994 367.092, 354.600 368.050, 353.500 369.189 M 266.813 376.683 C 267.534 376.972, 268.397 376.936, 268.729 376.604 C 269.061 376.272, 268.471 376.036, 267.417 376.079 C 266.252 376.127, 266.015 376.364, 266.813 376.683 M 361.952 378.228 C 360.760 379.478, 358.726 382.150, 357.433 384.166 C 356.139 386.182, 354.613 388.121, 354.041 388.475 C 353.468 388.829, 353 389.557, 353 390.094 C 353 392.712, 363.428 383.677, 364.898 379.785 C 366.259 376.182, 364.693 375.354, 361.952 378.228 M 147.750 377.662 C 148.438 377.940, 149.563 377.940, 150.250 377.662 C 150.938 377.385, 150.375 377.158, 149 377.158 C 147.625 377.158, 147.063 377.385, 147.750 377.662 M 154 380 C 154 380.550, 154.675 381, 155.500 381 C 156.325 381, 157 380.550, 157 380 C 157 379.450, 156.325 379, 155.500 379 C 154.675 379, 154 379.450, 154 380 M 395.147 383.015 C 393.141 385.729, 393.085 386.095, 394.591 386.673 C 395.512 387.027, 397.105 386.791, 398.132 386.149 C 399.721 385.157, 400 385.280, 400 386.972 C 400 388.946, 401.647 389.726, 406.933 390.256 C 409.098 390.473, 409.384 390.087, 409.522 386.750 C 409.673 383.132, 408.784 381.923, 407.500 384 C 406.052 386.342, 399 383.969, 399 381.140 C 399 379.148, 397.447 379.904, 395.147 383.015 M 157.568 381.890 C 157.122 382.612, 157.963 383, 159.976 383 C 161.678 383, 164.180 383.727, 165.535 384.615 C 168.265 386.404, 168.827 385.684, 166.510 383.367 C 164.581 381.438, 158.471 380.428, 157.568 381.890 M 171.813 384.683 C 172.534 384.972, 173.397 384.936, 173.729 384.604 C 174.061 384.272, 173.471 384.036, 172.417 384.079 C 171.252 384.127, 171.015 384.364, 171.813 384.683 M 181.750 386.662 C 182.438 386.940, 183.563 386.940, 184.250 386.662 C 184.938 386.385, 184.375 386.158, 183 386.158 C 181.625 386.158, 181.063 386.385, 181.750 386.662 M 156.479 390.024 C 153.907 392.865, 155.887 394.686, 158.699 392.066 C 159.847 390.996, 161.060 390.393, 161.394 390.727 C 161.727 391.060, 162 390.856, 162 390.274 C 162 389.691, 161.288 388.941, 160.418 388.607 C 158.328 387.805, 158.563 387.720, 156.479 390.024 M 193 389 C 193 389.550, 193.900 390, 195 390 C 196.100 390, 197 389.550, 197 389 C 197 388.450, 196.100 388, 195 388 C 193.900 388, 193 388.450, 193 389 M 208 390.893 C 208 391.384, 208.675 392.045, 209.500 392.362 C 210.414 392.712, 211 392.363, 211 391.469 C 211 390.661, 210.325 390, 209.500 390 C 208.675 390, 208 390.402, 208 390.893 M 149.158 393 C 149.158 394.375, 149.385 394.938, 149.662 394.250 C 149.940 393.563, 149.940 392.438, 149.662 391.750 C 149.385 391.063, 149.158 391.625, 149.158 393 M 226.500 393 C 226.160 393.550, 226.359 394, 226.941 394 C 227.523 394, 228 393.550, 228 393 C 228 392.450, 227.802 392, 227.559 392 C 227.316 392, 226.840 392.450, 226.500 393 M 144.612 405.218 C 142.333 410.474, 142.690 412.256, 145.104 407.680 C 146.213 405.579, 146.918 403.329, 146.672 402.680 C 146.425 402.031, 145.498 403.173, 144.612 405.218 M 154.658 404.744 C 153.173 407.147, 151.106 414.053, 152.045 413.472 C 153.350 412.666, 156.140 405.921, 155.707 404.620 C 155.492 403.975, 155.105 404.020, 154.658 404.744 M 163.500 410 C 166.250 411.015, 169.175 411.845, 170 411.845 C 170.825 411.845, 169.250 411.015, 166.500 410 C 163.750 408.985, 160.825 408.155, 160 408.155 C 159.175 408.155, 160.750 408.985, 163.500 410 M 438.583 409.866 C 438.152 410.563, 438.070 411.403, 438.400 411.733 C 439.295 412.628, 440.271 411.312, 439.787 409.862 C 439.449 408.846, 439.213 408.846, 438.583 409.866 M 158.076 413.408 C 156.265 415.591, 157.458 416.733, 161.006 416.212 C 163.194 415.891, 164.009 415.281, 163.790 414.129 C 163.380 411.976, 159.655 411.506, 158.076 413.408 M 182.500 416 C 185.250 417.015, 188.175 417.845, 189 417.845 C 189.825 417.845, 188.250 417.015, 185.500 416 C 182.750 414.985, 179.825 414.155, 179 414.155 C 178.175 414.155, 179.750 414.985, 182.500 416 M 306.629 416.477 C 306.951 417.315, 307.841 418, 308.607 418 C 310.560 418, 310.341 417.253, 308.023 416.012 C 306.409 415.149, 306.153 415.234, 306.629 416.477 M 198.500 421 C 201.249 422.181, 202.828 422.181, 201 421 C 200.175 420.467, 198.825 420.055, 198 420.086 C 197.011 420.122, 197.181 420.433, 198.500 421 M 152 423 C 152 423.550, 152.873 424, 153.941 424 C 155.009 424, 156.160 423.550, 156.500 423 C 156.851 422.433, 156.010 422, 154.559 422 C 153.152 422, 152 422.450, 152 423 M 204.500 423 C 205.600 423.473, 207.175 423.859, 208 423.859 C 208.945 423.859, 208.761 423.542, 207.500 423 C 206.400 422.527, 204.825 422.141, 204 422.141 C 203.055 422.141, 203.239 422.458, 204.500 423 M 212.662 425.936 C 214.401 426.996, 216.300 428.682, 216.882 429.682 C 217.463 430.682, 217.953 430.978, 217.970 430.339 C 218.006 428.935, 212.321 423.998, 210.673 424.004 C 210.028 424.006, 210.923 424.875, 212.662 425.936 M 140 427 C 138.550 428.450, 138.048 430.169, 138.175 433.250 L 138.349 437.500 138.731 433.278 C 139.008 430.213, 139.818 428.501, 141.691 427.028 C 143.109 425.913, 143.759 425, 143.135 425 C 142.511 425, 141.100 425.900, 140 427 M 223.638 433.500 C 223.955 434.325, 224.616 435, 225.107 435 C 225.598 435, 226 434.325, 226 433.500 C 226 432.675, 225.339 432, 224.531 432 C 223.637 432, 223.288 432.586, 223.638 433.500 M 458.974 440.353 C 457.117 444.284, 455.174 448.593, 454.656 449.928 C 454.138 451.264, 452.179 454.368, 450.303 456.826 L 446.891 461.296 450.386 463.398 C 455.400 466.414, 461.788 470.676, 471.058 477.189 C 475.512 480.318, 479.735 482.655, 480.442 482.384 C 481.150 482.112, 482.237 480.902, 482.857 479.695 C 483.478 478.488, 484.403 476.825, 484.913 476 C 488.843 469.646, 492.342 458.024, 490.338 457.983 C 489.877 457.974, 487.450 456.061, 484.944 453.733 C 482.439 451.405, 476.860 446.350, 472.547 442.500 C 468.235 438.650, 464.176 434.984, 463.528 434.353 C 462.631 433.481, 461.542 434.915, 458.974 440.353 M 138.286 444.500 C 138.294 447.250, 138.488 448.256, 138.718 446.736 C 138.947 445.216, 138.941 442.966, 138.704 441.736 C 138.467 440.506, 138.279 441.750, 138.286 444.500 M 239 443.371 C 239 444.461, 239.957 444.563, 243.668 443.870 C 250.108 442.667, 250.286 442, 244.167 442 C 240.457 442, 239 442.387, 239 443.371 M 235.467 446.750 C 236.192 450.700, 238 453.608, 238 450.825 C 238 447.519, 236.709 443, 235.764 443 C 235.168 443, 235.050 444.486, 235.467 446.750 M 252.079 444.583 C 252.127 445.748, 252.364 445.985, 252.683 445.188 C 252.972 444.466, 252.936 443.603, 252.604 443.271 C 252.272 442.939, 252.036 443.529, 252.079 444.583 M 378.393 451.171 C 378.798 454.433, 385.051 468.867, 387.196 471.491 C 387.650 472.046, 389.359 474.075, 390.995 476 C 392.630 477.925, 393.975 479.789, 393.984 480.143 C 393.993 480.497, 394.658 481.039, 395.463 481.347 C 396.314 481.674, 395.583 479.832, 393.713 476.937 C 391.946 474.202, 387.674 466.460, 384.219 459.732 C 379.290 450.132, 378.036 448.290, 378.393 451.171 M 34.813 449.683 C 35.534 449.972, 36.397 449.936, 36.729 449.604 C 37.061 449.272, 36.471 449.036, 35.417 449.079 C 34.252 449.127, 34.015 449.364, 34.813 449.683 M 130.813 449.683 C 131.534 449.972, 132.397 449.936, 132.729 449.604 C 133.061 449.272, 132.471 449.036, 131.417 449.079 C 130.252 449.127, 130.015 449.364, 130.813 449.683 M 230.498 466.003 C 230.157 466.555, 230.175 468.983, 230.537 471.398 C 231.032 474.700, 230.836 476.003, 229.750 476.646 C 228.564 477.346, 226.432 485, 227.423 485 C 228.944 485, 259.398 481.860, 262.301 481.404 C 264.392 481.076, 265.967 480.483, 265.801 480.087 C 265.636 479.691, 262.846 476.979, 259.603 474.060 L 253.705 468.752 246.853 469.243 C 243.084 469.512, 240 469.376, 240 468.940 C 240 467.991, 234.234 465, 232.405 465 C 231.697 465, 230.839 465.451, 230.498 466.003 M 240.325 486.386 C 234.728 487.008, 229.801 487.866, 229.376 488.291 C 228.950 488.716, 231.054 488.826, 234.051 488.536 C 237.048 488.245, 244.443 487.525, 250.484 486.936 C 256.525 486.347, 261.663 485.671, 261.901 485.433 C 262.646 484.688, 250.941 485.205, 240.325 486.386 M 133.158 495 C 133.158 496.375, 133.385 496.938, 133.662 496.250 C 133.940 495.563, 133.940 494.438, 133.662 493.750 C 133.385 493.063, 133.158 493.625, 133.158 495 M 135.272 508 C 135.272 510.475, 135.467 511.488, 135.706 510.250 C 135.944 509.012, 135.944 506.988, 135.706 505.750 C 135.467 504.512, 135.272 505.525, 135.272 508" stroke="none" fill="black" fill-rule="evenodd"/>
</svg>